<?xml version="1.0" standalone="no"?>
<!DOCTYPE svg PUBLIC "-//W3C//DTD SVG 20010904//EN"
 "http://www.w3.org/TR/2001/REC-SVG-20010904/DTD/svg10.dtd">
<svg version="1.0" xmlns="http://www.w3.org/2000/svg"
 width="512.000000pt" height="512.000000pt" viewBox="0 0 512.000000 512.000000"
 preserveAspectRatio="xMidYMid meet">
<metadata>
Created by potrace 1.11, written by Peter Selinger 2001-2013
</metadata>
<g transform="translate(0.000000,512.000000) scale(0.100000,-0.100000)"
fill="#000000" stroke="none">
<path d="M1419 5116 c-2 -2 -53 -6 -114 -10 -60 -3 -128 -8 -150 -11 -22 -3
-60 -7 -85 -10 -371 -45 -716 -291 -915 -650 -54 -98 -105 -265 -120 -390 -3
-27 -8 -59 -10 -70 -20 -95 -31 -2456 -13 -2680 25 -296 52 -422 129 -580 158
-329 512 -609 834 -661 17 -3 37 -7 45 -10 24 -8 157 -24 275 -32 147 -10
2379 -9 2525 1 327 22 475 61 670 175 89 52 183 127 263 209 64 65 176 212
177 230 0 6 3 13 8 15 13 6 60 103 90 188 26 74 51 193 66 310 29 226 31 2645
2 2820 -2 14 -7 48 -10 75 -30 244 -122 449 -286 637 -180 209 -451 367 -685
402 -22 3 -49 7 -60 10 -11 2 -49 7 -85 10 -36 4 -85 10 -110 13 -48 6 -2435
15 -2441 9z"/>
</g>
</svg>
