<svg width="174" height="44" viewBox="0 0 174 44" fill="none" xmlns="http://www.w3.org/2000/svg">
<g opacity="0.56">
<path d="M37.5762 12.9312H42.7256C48.7616 12.9312 51.9554 16.1724 51.9554 21.9309C51.9554 27.4525 48.6668 30.6667 42.7053 30.6667H37.5829V12.9312H37.5762ZM42.3873 27.7503C46.3052 27.7503 48.7683 26.2278 48.7683 21.8023C48.7683 17.5934 47.0496 15.8611 42.6783 15.8611H40.7701V27.7503H42.3873Z" fill="#8A8CB9"/>
<path d="M53.5728 24.4481C53.5728 21.1865 55.481 17.8708 59.7237 17.8708C64.1153 17.8708 65.5363 21.3963 65.5363 24.1977C65.5363 24.712 65.4889 25.2263 65.4213 25.4022H56.8072C57.0712 27.0465 57.9779 28.1495 59.947 28.1495C61.077 28.1495 62.0785 27.7976 62.9582 26.8165L65.0694 28.6638C63.7025 30.1863 62.0312 30.9239 59.9199 30.9239C55.6028 30.9239 53.5728 27.8247 53.5728 24.4481ZM62.5251 23.1895C62.5251 22.9121 62.4981 22.6482 62.4236 22.3978C62.1124 21.1053 61.0297 20.4422 59.6966 20.4422C57.8899 20.4422 57.0982 21.6196 56.8072 23.1895H62.5251V23.1895Z" fill="#8A8CB9"/>
<path d="M66.6189 27.4053L69.0549 26.3226C69.3933 27.2293 70.0564 28.3797 71.7278 28.3797C73.1488 28.3797 73.7645 27.5541 73.7645 26.8842C73.7645 24.773 67.4647 26.194 67.4647 21.7618C67.4647 19.1093 69.6977 17.8574 72.1202 17.8574C74.2788 17.8574 75.9231 18.886 76.8772 20.5844L74.5021 21.8769C74.0758 21.0987 73.3721 20.2799 72.0187 20.2799C71.0173 20.2799 70.4015 20.7671 70.4015 21.3626C70.4015 23.2573 76.7825 22.1272 76.7825 26.7354C76.7825 29.6383 74.2585 30.9172 71.8834 30.9172C69.2444 30.924 67.2347 29.3405 66.6189 27.4053Z" fill="#8A8CB9"/>
<path d="M79.4351 12.9312H82.6492V15.7529H79.4351V12.9312V12.9312ZM79.5095 18.128H82.5748V30.6735H79.5095V18.128Z" fill="#8A8CB9"/>
<path d="M100.852 18.1279H103.917V19.5828C104.919 18.3512 106.367 17.864 107.598 17.864C110.887 17.864 112.179 20.5166 112.179 23.1353V30.6666H109.114V23.521C109.114 21.8767 108.288 20.6857 106.719 20.6857C105 20.6857 103.917 21.6128 103.917 23.7984V30.6666H100.852V18.1279V18.1279Z" fill="#8A8CB9"/>
<path d="M112.118 12.9312H115.434L119.21 25.9909L123.141 13.9597H125.618L129.549 25.9909L133.325 12.9312H136.641L131.316 30.6735H128.237L124.373 18.9941L120.516 30.6735H117.437L112.118 12.9312Z" fill="#8A8CB9"/>
<path d="M155.391 30.3351L150.486 18.1279H153.849L157.015 26.8435L160.23 18.1279H163.593L156.427 36.0665H153.084L155.391 30.3351Z" fill="#8A8CB9"/>
<path d="M163.742 27.4053L166.178 26.3226C166.516 27.2293 167.179 28.3797 168.851 28.3797C170.272 28.3797 170.887 27.5541 170.887 26.8842C170.887 24.773 164.588 26.194 164.588 21.7618C164.588 19.1093 166.821 17.8574 169.243 17.8574C171.402 17.8574 173.046 18.886 174 20.5844L171.625 21.8769C171.199 21.0987 170.495 20.2799 169.142 20.2799C168.14 20.2799 167.524 20.7671 167.524 21.3626C167.524 23.2573 173.905 22.1272 173.905 26.7354C173.905 29.6383 171.381 30.9172 169.006 30.9172C166.367 30.924 164.357 29.3405 163.742 27.4053Z" fill="#8A8CB9"/>
<path d="M137.399 29.0427C136.269 27.8247 135.707 26.2683 135.707 24.3737C135.707 22.479 136.269 20.9294 137.392 19.7249C138.515 18.5204 139.936 17.9182 141.668 17.9182C143.401 17.9182 144.714 18.6287 145.627 20.0565V18.0941H148.807V30.687H145.627V28.5758C144.673 30.1051 143.347 30.8697 141.648 30.8697C139.936 30.8765 138.529 30.2675 137.399 29.0427ZM144.619 27.1142C145.289 26.4578 145.62 25.5511 145.62 24.394C145.62 23.2436 145.289 22.3369 144.619 21.6737C143.949 21.0174 143.171 20.6858 142.278 20.6858C141.384 20.6858 140.606 21.0106 139.95 21.6602C139.293 22.3098 138.962 23.2165 138.962 24.3669C138.962 25.5172 139.293 26.4307 139.963 27.0939C140.633 27.7638 141.405 28.0954 142.291 28.0954C143.177 28.0954 143.949 27.7706 144.619 27.1142Z" fill="#8A8CB9"/>
<path d="M86.8311 28.9885C85.701 27.7705 85.1394 26.2141 85.1394 24.3195C85.1394 22.4248 85.701 20.8752 86.8243 19.6707C87.9476 18.4663 89.3686 17.864 91.1009 17.864C92.8332 17.864 94.1459 18.5745 95.0594 20.0023V18.0467H98.2398V30.7343C98.2398 32.541 97.712 34.0094 96.6496 35.1597C95.5872 36.3033 94.0985 36.8785 92.1836 36.8785C90.2686 36.8785 88.7393 36.4793 87.616 35.6876C86.486 34.8891 85.8431 33.759 85.6943 32.2907H88.834C89.0303 32.8523 89.4092 33.2921 89.9708 33.6237C90.5325 33.9485 91.2362 34.1109 92.0821 34.1109C92.9279 34.1109 93.6384 33.8335 94.2068 33.2718C94.7752 32.7102 95.0594 31.8711 95.0594 30.7478V28.5419C94.1053 30.0712 92.779 30.8358 91.0806 30.8358C89.3754 30.8155 87.9611 30.2065 86.8311 28.9885ZM94.0512 27.0532C94.7211 26.3968 95.0526 25.4901 95.0526 24.333C95.0526 23.1827 94.7211 22.2759 94.0512 21.6128C93.3813 20.9564 92.6031 20.6248 91.7099 20.6248C90.8167 20.6248 90.0385 20.9496 89.3821 21.5992C88.7258 22.2489 88.3942 23.1556 88.3942 24.3059C88.3942 25.4563 88.7258 26.3698 89.3957 27.0329C90.0656 27.7028 90.837 28.0344 91.7234 28.0344C92.6099 28.0344 93.3813 27.7164 94.0512 27.0532Z" fill="#8A8CB9"/>
<path d="M3.50541 31.8375C3.49865 31.4653 3.55955 31.0999 3.67458 30.7481C3.76932 30.4842 3.89788 30.2338 4.06028 30.0105C4.22269 29.7872 4.39862 29.5707 4.59485 29.3812C4.96702 29.009 5.43393 28.6233 5.96173 28.2038C6.3542 27.8925 6.77374 27.5542 7.20004 27.1752C7.53161 26.8775 7.84965 26.5595 8.14061 26.2211C8.37745 25.9437 8.59398 25.6527 8.78345 25.3482C9.10149 24.8475 9.34509 24.3062 9.50749 23.7378C9.69019 23.1085 9.77816 22.4656 9.77139 21.8092C9.77816 21.0446 9.64959 20.2867 9.40599 19.5695C9.20976 19.0078 8.93232 18.4733 8.58722 17.9793C8.30978 17.5936 8.00528 17.2282 7.66694 16.8898C7.11207 16.3282 6.53013 15.8681 6.00233 15.4485C5.60309 15.1305 5.23769 14.8395 4.91965 14.5553C4.69635 14.3591 4.49335 14.1493 4.29712 13.926C4.16855 13.7772 4.05352 13.6283 3.95201 13.4659C3.80991 13.2358 3.69488 12.9922 3.62045 12.7283C3.53248 12.417 3.49188 12.099 3.49188 11.781C3.49188 10.8201 2.71371 10.0352 1.74607 10.0352C0.785193 10.0352 0.000254075 10.8133 0.000254075 11.781C-0.00651264 12.5456 0.122053 13.3035 0.365654 14.0208C0.561889 14.5892 0.839327 15.1237 1.18443 15.6109C1.46187 15.9966 1.76637 16.362 2.1047 16.7004C2.65957 17.262 3.24151 17.7221 3.76931 18.1417C4.16855 18.4529 4.53395 18.7507 4.85199 19.0349C5.07529 19.2311 5.27829 19.4409 5.47453 19.6642C5.60309 19.8131 5.71813 19.9619 5.81963 20.1243C5.96173 20.3544 6.07676 20.598 6.1512 20.8619C6.23917 21.1732 6.27977 21.4912 6.27977 21.8092C6.28653 22.1814 6.22563 22.5468 6.1106 22.8987C6.01587 23.1626 5.8873 23.413 5.7249 23.6363C5.56249 23.8596 5.38656 24.0761 5.19032 24.2656C4.81815 24.6377 4.35125 25.0234 3.82345 25.443C3.43098 25.761 3.00468 26.0926 2.59191 26.4715C2.26034 26.7693 1.9423 27.0873 1.65133 27.4256C1.4145 27.7031 1.19796 27.994 1.00849 28.2985C0.690457 28.7993 0.446856 29.3406 0.277688 29.909C0.0949865 30.5383 0.00701749 31.1811 0.0137842 31.8375C0.0137842 32.7984 0.79196 33.5833 1.7596 33.5833C2.72724 33.5833 3.50541 32.7984 3.50541 31.8375Z" fill="#8A8CB9"/>
<path d="M17.1675 21.8024C17.1608 21.4302 17.2217 21.0648 17.3367 20.7129C17.4314 20.449 17.56 20.1987 17.7224 19.9754C17.8848 19.7521 18.0607 19.5355 18.257 19.346C18.6291 18.9739 19.096 18.5882 19.6238 18.1686C20.0163 17.8574 20.4358 17.519 20.8621 17.1401C21.1937 16.8424 21.5118 16.5243 21.8027 16.186C22.0396 15.9086 22.2561 15.6176 22.4456 15.3131C22.7636 14.8123 23.0072 14.271 23.1696 13.7026C23.3523 13.0733 23.4403 12.4305 23.4335 11.7741C23.4403 11.0094 23.3117 10.2516 23.0681 9.53431C22.8719 8.97267 22.5944 8.4381 22.2493 7.94413C21.9719 7.55843 21.6674 7.19302 21.329 6.85469C20.7742 6.29305 20.1922 5.83291 19.6644 5.41337C19.2652 5.09534 18.8998 4.80437 18.5818 4.52017C18.3585 4.32394 18.1555 4.11416 17.9592 3.89086C17.8307 3.74199 17.7156 3.59313 17.6141 3.43073C17.472 3.20066 17.357 2.95706 17.2826 2.69316C17.1946 2.38189 17.154 2.06385 17.154 1.74582C17.154 0.784943 16.3758 0 15.4082 0C14.4405 0 13.6624 0.778176 13.6624 1.74582C13.6556 2.51046 13.7842 3.26833 14.0278 3.9856C14.224 4.554 14.5014 5.08857 14.8465 5.57578C15.124 5.96148 15.4285 6.32688 15.7668 6.66522C16.3217 7.22685 16.9036 7.68699 17.4314 8.10653C17.8239 8.42457 18.1961 8.71553 18.5073 8.99973C18.7306 9.19597 18.9336 9.40574 19.1299 9.62904C19.2584 9.77791 19.3735 9.92677 19.475 10.0892C19.6171 10.3192 19.7321 10.5628 19.8065 10.8267C19.8945 11.1313 19.9351 11.4561 19.9351 11.7741C19.9419 12.1463 19.881 12.5117 19.7659 12.8635C19.6712 13.1274 19.5426 13.3778 19.3802 13.6011C19.2178 13.8244 19.0419 14.0409 18.8457 14.2304C18.4735 14.6026 18.0066 14.9883 17.4788 15.4078C17.0863 15.7259 16.66 16.0574 16.2472 16.4364C15.9157 16.7341 15.5976 17.0521 15.3067 17.3905C15.0698 17.6679 14.8533 17.9589 14.6638 18.2634C14.3458 18.7641 14.1022 19.3055 13.9398 19.8739C13.7571 20.5032 13.6691 21.1528 13.6691 21.8024C13.6691 22.7632 14.4473 23.5482 15.4149 23.5482C16.3826 23.5482 17.1675 22.7632 17.1675 21.8024Z" fill="#8A8CB9"/>
<path d="M17.1673 41.8724C17.1606 41.5003 17.2215 41.1349 17.3365 40.783C17.4312 40.5191 17.5598 40.2687 17.7222 40.0454C17.8846 39.8221 18.0606 39.6056 18.2568 39.4161C18.629 39.0439 19.0959 38.6582 19.6237 38.2387C20.0161 37.9274 20.4357 37.5891 20.862 37.2102C21.1935 36.9124 21.5116 36.5944 21.8025 36.2561C22.0394 35.9786 22.2559 35.6877 22.4454 35.3832C22.7634 34.8824 23.007 34.3411 23.1694 33.7727C23.3521 33.1434 23.4401 32.5005 23.4333 31.8442C23.4401 31.0795 23.3115 30.3216 23.0679 29.6044C22.8717 29.0427 22.5943 28.5082 22.2491 28.0142C21.9717 27.6285 21.6672 27.2631 21.3289 26.9248C20.774 26.3631 20.1921 25.903 19.6643 25.4834C19.2718 25.1654 18.8996 24.8744 18.5884 24.5902C18.3651 24.394 18.1621 24.1842 17.9658 23.9609C17.8373 23.8121 17.7222 23.6632 17.6207 23.5008C17.4786 23.2707 17.3636 23.0271 17.2891 22.7632C17.2012 22.452 17.1606 22.1339 17.1606 21.8159C17.1606 20.855 16.3824 20.0701 15.4148 20.0701C14.4471 20.0701 13.669 20.8482 13.669 21.8159C13.6622 22.5805 13.7908 23.3384 14.0344 24.0557C14.2306 24.6241 14.508 25.1586 14.8531 25.6458C15.1306 26.0315 15.4351 26.3969 15.7734 26.7353C16.3283 27.2969 16.9102 27.7571 17.438 28.1766C17.8305 28.4946 18.2027 28.7856 18.5139 29.0698C18.7372 29.266 18.9402 29.4758 19.1365 29.6991C19.265 29.848 19.3801 29.9969 19.4816 30.1593C19.6237 30.3893 19.7387 30.6329 19.8131 30.8968C19.9011 31.2013 19.9417 31.5261 19.9417 31.8442C19.9485 32.2163 19.8876 32.5817 19.7725 32.9336C19.6778 33.1975 19.5492 33.4479 19.3868 33.6712C19.2244 33.8945 19.0485 34.111 18.8523 34.3005C18.4801 34.6726 18.0132 35.0584 17.4854 35.4779C17.0929 35.7959 16.6666 36.1275 16.2538 36.5064C15.9223 36.8042 15.6042 37.1222 15.3133 37.4605C15.0764 37.738 14.8599 38.0289 14.6704 38.3334C14.3524 38.8342 14.1088 39.3755 13.9464 39.9439C13.7637 40.5732 13.6757 41.2228 13.6757 41.8724C13.6757 42.8333 14.4539 43.6182 15.4215 43.6182C16.3892 43.6182 17.1673 42.8401 17.1673 41.8724Z" fill="#8A8CB9"/>
</g>
</svg>
