<svg width="24" height="23" viewBox="0 0 24 23" fill="none" xmlns="http://www.w3.org/2000/svg">
<path fill-rule="evenodd" clip-rule="evenodd" d="M23.0194 15.9023C23.0194 17.8477 22.3427 19.5395 21.1585 20.7237C19.9743 21.9079 18.2826 22.5 16.4217 22.5H7.20175C5.34085 22.5 3.64912 21.9079 2.46491 20.7237C1.19611 19.5395 0.604004 17.8477 0.604004 15.9023V6.59774C0.604004 2.70677 3.22618 0 7.20175 0H16.5063C18.4517 0 20.0589 0.676692 21.2431 1.8609C22.4273 3.04511 23.0194 4.65226 23.0194 6.59774V15.9023ZM17.7745 6.51261C17.0132 6.51261 16.4211 5.92051 16.4211 5.15923C16.4211 4.39795 17.0132 3.80585 17.7745 3.80585C18.5358 3.80585 19.1279 4.39795 19.1279 5.15923C19.1279 5.92051 18.5358 6.51261 17.7745 6.51261ZM11.7689 16.9173C8.55463 16.9173 6.01704 14.2951 6.01704 11.1654C6.01704 7.95111 8.63922 5.41351 11.7689 5.41351C14.8986 5.41351 17.6054 7.95111 17.6054 11.1654C17.6054 14.3797 14.9832 16.9173 11.7689 16.9173ZM11.768 14.888C13.8235 14.888 15.4898 13.2217 15.4898 11.1662C15.4898 9.11069 13.8235 7.44438 11.768 7.44438C9.71247 7.44438 8.04616 9.11069 8.04616 11.1662C8.04616 13.2217 9.71247 14.888 11.768 14.888Z" fill="#575983"/>
</svg>
