<svg width="168" height="43" viewBox="0 0 168 43" fill="none" xmlns="http://www.w3.org/2000/svg">
<path d="M36.2974 12.4837H41.2686C47.0957 12.4837 50.179 15.6128 50.179 21.172C50.179 26.5025 47.0042 29.6055 41.249 29.6055H36.3039V12.4837H36.2974ZM40.942 26.79C44.7243 26.79 47.1022 25.3202 47.1022 21.0479C47.1022 16.9846 45.4429 15.3123 41.2229 15.3123H39.3807V26.79H40.942Z" fill="white"/>
<path d="M51.7402 23.6021C51.7402 20.4534 53.5824 17.2524 57.6783 17.2524C61.9179 17.2524 63.2898 20.6559 63.2898 23.3604C63.2898 23.8568 63.244 24.3533 63.1787 24.5232H54.8628C55.1176 26.1106 55.9929 27.1754 57.8939 27.1754C58.9848 27.1754 59.9516 26.8357 60.8009 25.8885L62.839 27.6719C61.5195 29.1417 59.9059 29.8537 57.8678 29.8537C53.7 29.8537 51.7402 26.8618 51.7402 23.6021ZM60.3828 22.387C60.3828 22.1192 60.3567 21.8644 60.2848 21.6227C59.9843 20.375 58.9391 19.7348 57.6522 19.7348C55.908 19.7348 55.1437 20.8715 54.8628 22.387H60.3828Z" fill="white"/>
<path d="M64.335 26.4568L66.6867 25.4116C67.0133 26.287 67.6535 27.3975 69.267 27.3975C70.6389 27.3975 71.2333 26.6005 71.2333 25.9538C71.2333 23.9156 65.1515 25.2875 65.1515 21.0087C65.1515 18.4479 67.3073 17.2394 69.6459 17.2394C71.7298 17.2394 73.3172 18.2323 74.2383 19.872L71.9454 21.1197C71.5338 20.3685 70.8544 19.578 69.5479 19.578C68.5811 19.578 67.9866 20.0484 67.9866 20.6232C67.9866 22.4524 74.1468 21.3614 74.1468 25.8101C74.1468 28.6125 71.7102 29.8472 69.4173 29.8472C66.8696 29.8537 64.9294 28.3251 64.335 26.4568Z" fill="white"/>
<path d="M76.7078 12.4837H79.8107V15.2078H76.7078V12.4837ZM76.7796 17.5007H79.7389V29.612H76.7796V17.5007Z" fill="white"/>
<path d="M97.3831 17.5007H100.342V18.9052C101.309 17.7163 102.707 17.2459 103.896 17.2459C107.071 17.2459 108.319 19.8067 108.319 22.3348V29.6055H105.359V22.7071C105.359 21.1197 104.562 19.97 103.047 19.97C101.388 19.97 100.342 20.8649 100.342 22.975V29.6055H97.3831V17.5007Z" fill="white"/>
<path d="M108.26 12.4837H111.461L115.106 25.0915L118.901 13.4767H121.292L125.088 25.0915L128.733 12.4837H131.934L126.793 29.612H123.82L120.09 18.3369L116.367 29.612H113.394L108.26 12.4837Z" fill="white"/>
<path d="M150.035 29.2854L145.299 17.5007H148.546L151.603 25.9146L154.706 17.5007H157.953L151.035 34.8185H147.808L150.035 29.2854Z" fill="white"/>
<path d="M158.097 26.4568L160.448 25.4116C160.775 26.287 161.415 27.3975 163.029 27.3975C164.401 27.3975 164.995 26.6005 164.995 25.9538C164.995 23.9156 158.913 25.2875 158.913 21.0087C158.913 18.4479 161.069 17.2394 163.408 17.2394C165.492 17.2394 167.079 18.2323 168 19.872L165.707 21.1197C165.296 20.3685 164.616 19.578 163.31 19.578C162.343 19.578 161.748 20.0484 161.748 20.6232C161.748 22.4524 167.909 21.3614 167.909 25.8101C167.909 28.6125 165.472 29.8472 163.179 29.8472C160.631 29.8537 158.691 28.3251 158.097 26.4568Z" fill="white"/>
<path d="M132.665 28.0377C131.574 26.8618 131.032 25.3593 131.032 23.5302C131.032 21.7011 131.574 20.2051 132.659 19.0423C133.743 17.8796 135.115 17.2982 136.787 17.2982C138.46 17.2982 139.727 17.9841 140.609 19.3624V17.468H143.679V29.6251H140.609V27.5869C139.688 29.0633 138.407 29.8015 136.768 29.8015C135.115 29.808 133.756 29.2201 132.665 28.0377ZM139.636 26.1759C140.282 25.5422 140.602 24.6669 140.602 23.5498C140.602 22.4393 140.282 21.5639 139.636 20.9237C138.989 20.2901 138.238 19.97 137.375 19.97C136.513 19.97 135.762 20.2835 135.128 20.9107C134.494 21.5378 134.174 22.4131 134.174 23.5237C134.174 24.6342 134.494 25.5161 135.141 26.1563C135.788 26.803 136.533 27.1231 137.388 27.1231C138.244 27.1231 138.989 26.8095 139.636 26.1759Z" fill="white"/>
<path d="M83.8477 27.9854C82.7568 26.8096 82.2146 25.3071 82.2146 23.478C82.2146 21.6488 82.7568 20.1529 83.8412 18.9901C84.9256 17.8273 86.2974 17.2459 87.9698 17.2459C89.6421 17.2459 90.9094 17.9318 91.7913 19.3102V17.4223H94.8616V29.6708C94.8616 31.415 94.3521 32.8326 93.3265 33.9431C92.3009 35.0471 90.8637 35.6024 89.015 35.6024C87.1663 35.6024 85.6899 35.2169 84.6055 34.4526C83.5146 33.6818 82.894 32.5909 82.7503 31.1733H85.7814C85.9708 31.7155 86.3366 32.1401 86.8788 32.4602C87.421 32.7738 88.1004 32.9306 88.917 32.9306C89.7336 32.9306 90.4195 32.6627 90.9682 32.1205C91.5169 31.5783 91.7913 30.7683 91.7913 29.6839V27.5543C90.8702 29.0306 89.5898 29.7688 87.9502 29.7688C86.304 29.7492 84.9387 29.1613 83.8477 27.9854ZM90.818 26.1171C91.4647 25.4835 91.7848 24.6081 91.7848 23.491C91.7848 22.3805 91.4647 21.5051 90.818 20.8649C90.1712 20.2313 89.42 19.9112 88.5577 19.9112C87.6954 19.9112 86.9442 20.2248 86.3105 20.8519C85.6768 21.479 85.3568 22.3544 85.3568 23.4649C85.3568 24.5754 85.6768 25.4573 86.3236 26.0975C86.9703 26.7442 87.715 27.0643 88.5708 27.0643C89.4265 27.0643 90.1712 26.7573 90.818 26.1171Z" fill="white"/>
<path d="M3.40559 30.7356C3.39906 30.3763 3.45785 30.0236 3.5689 29.6839C3.66036 29.4291 3.78448 29.1874 3.94126 28.9718C4.09804 28.7562 4.26788 28.5472 4.45733 28.3643C4.81662 28.005 5.26736 27.6327 5.7769 27.2276C6.15579 26.9271 6.56081 26.6005 6.97236 26.2347C7.29245 25.9472 7.59948 25.6402 7.88038 25.3136C8.10902 25.0458 8.31806 24.7649 8.50097 24.4709C8.808 23.9875 9.04318 23.4649 9.19996 22.9162C9.37634 22.3086 9.46126 21.688 9.45473 21.0544C9.46126 20.3162 9.33714 19.5846 9.10197 18.8921C8.91253 18.3499 8.64469 17.8338 8.31153 17.357C8.04369 16.9846 7.74973 16.6318 7.4231 16.3052C6.88744 15.763 6.32563 15.3188 5.8161 14.9138C5.43068 14.6068 5.07792 14.3258 4.77089 14.0515C4.55531 13.862 4.35934 13.6595 4.1699 13.444C4.04578 13.3002 3.93472 13.1565 3.83673 12.9997C3.69955 12.7776 3.5885 12.5425 3.51664 12.2877C3.43172 11.9872 3.39252 11.6802 3.39252 11.3731C3.39252 10.4455 2.64128 9.68774 1.70713 9.68774C0.779504 9.68774 0.0217297 10.439 0.0217297 11.3731C0.0151971 12.1113 0.139313 12.843 0.374485 13.5354C0.563929 14.0841 0.831766 14.6002 1.16493 15.0706C1.43276 15.4429 1.72672 15.7957 2.05335 16.1223C2.58902 16.6645 3.15082 17.1087 3.66036 17.5137C4.04578 17.8142 4.39853 18.1017 4.70556 18.376C4.92114 18.5655 5.11711 18.768 5.30656 18.9836C5.43068 19.1273 5.54173 19.271 5.63972 19.4278C5.7769 19.6499 5.88795 19.885 5.95981 20.1398C6.04474 20.4403 6.08393 20.7473 6.08393 21.0544C6.09047 21.4137 6.03167 21.7664 5.92062 22.1061C5.82916 22.3609 5.70504 22.6026 5.54826 22.8182C5.39148 23.0337 5.22163 23.2428 5.03219 23.4257C4.6729 23.785 4.22216 24.1573 3.71262 24.5624C3.33373 24.8694 2.92218 25.1895 2.52369 25.5553C2.2036 25.8427 1.89657 26.1498 1.61567 26.4764C1.38703 26.7442 1.17799 27.0251 0.995077 27.3191C0.688047 27.8025 0.452876 28.3251 0.289562 28.8738C0.113184 29.4814 0.028259 30.1019 0.0347916 30.7356C0.0347916 31.6632 0.786038 32.421 1.72019 32.421C2.65435 32.421 3.40559 31.6632 3.40559 30.7356Z" fill="white"/>
<path d="M16.5948 21.0479C16.5883 20.6886 16.6471 20.3358 16.7581 19.9961C16.8496 19.7414 16.9737 19.4997 17.1305 19.2841C17.2872 19.0685 17.4571 18.8595 17.6465 18.6766C18.0058 18.3173 18.4566 17.9449 18.9661 17.5399C19.345 17.2394 19.75 16.9128 20.1616 16.5469C20.4817 16.2595 20.7887 15.9525 21.0696 15.6259C21.2982 15.358 21.5073 15.0771 21.6902 14.7832C21.9972 14.2997 22.2324 13.7771 22.3892 13.2284C22.5655 12.6209 22.6505 12.0003 22.6439 11.3666C22.6505 10.6285 22.5264 9.89681 22.2912 9.20436C22.1017 8.66216 21.8339 8.14609 21.5007 7.66921C21.2329 7.29686 20.9389 6.9441 20.6123 6.61747C20.0766 6.07527 19.5148 5.63106 19.0053 5.22604C18.6199 4.91901 18.2671 4.63811 17.9601 4.36374C17.7445 4.1743 17.5485 3.97179 17.3591 3.75621C17.235 3.6125 17.1239 3.46879 17.0259 3.31201C16.8888 3.0899 16.7777 2.85473 16.7059 2.59996C16.6209 2.29946 16.5817 1.99243 16.5817 1.6854C16.5817 0.757779 15.8305 0 14.8963 0C13.9622 0 13.2109 0.751246 13.2109 1.6854C13.2044 2.42358 13.3285 3.15522 13.5637 3.84767C13.7531 4.39641 14.021 4.91248 14.3541 5.38282C14.622 5.75518 14.9159 6.10793 15.2426 6.43456C15.7782 6.97676 16.34 7.42098 16.8496 7.82599C17.2285 8.13302 17.5877 8.41392 17.8882 8.68829C18.1038 8.87773 18.2998 9.08024 18.4892 9.29582C18.6133 9.43953 18.7244 9.58324 18.8224 9.74003C18.9596 9.96213 19.0706 10.1973 19.1425 10.4521C19.2274 10.746 19.2666 11.0596 19.2666 11.3666C19.2731 11.7259 19.2143 12.0787 19.1033 12.4184C19.0118 12.6731 18.8877 12.9148 18.7309 13.1304C18.5742 13.346 18.4043 13.555 18.2149 13.7379C17.8556 14.0972 17.4048 14.4696 16.8953 14.8746C16.5164 15.1816 16.1049 15.5017 15.7064 15.8676C15.3863 16.155 15.0792 16.462 14.7983 16.7886C14.5697 17.0565 14.3607 17.3374 14.1778 17.6313C13.8707 18.1148 13.6356 18.6374 13.4788 19.1861C13.3024 19.7936 13.2175 20.4207 13.2175 21.0479C13.2175 21.9755 13.9687 22.7333 14.9029 22.7333C15.837 22.7333 16.5948 21.9755 16.5948 21.0479Z" fill="white"/>
<path d="M16.5951 40.4234C16.5886 40.0641 16.6474 39.7114 16.7584 39.3717C16.8499 39.1169 16.974 38.8752 17.1308 38.6596C17.2876 38.4441 17.4574 38.235 17.6468 38.0521C18.0061 37.6928 18.4569 37.3205 18.9664 36.9154C19.3453 36.6149 19.7503 36.2883 20.1619 35.9225C20.482 35.6351 20.789 35.328 21.0699 35.0014C21.2985 34.7336 21.5076 34.4527 21.6905 34.1587C21.9975 33.6753 22.2327 33.1527 22.3895 32.604C22.5659 31.9964 22.6508 31.3758 22.6442 30.7422C22.6508 30.004 22.5267 29.2724 22.2915 28.5799C22.102 28.0377 21.8342 27.5216 21.501 27.0448C21.2332 26.6724 20.9392 26.3196 20.6126 25.993C20.0769 25.4508 19.5151 25.0066 19.0056 24.6016C18.6267 24.2946 18.2674 24.0137 17.9669 23.7393C17.7514 23.5498 17.5554 23.3473 17.3659 23.1318C17.2418 22.988 17.1308 22.8443 17.0328 22.6876C16.8956 22.4654 16.7845 22.2303 16.7127 21.9755C16.6278 21.675 16.5886 21.368 16.5886 21.0609C16.5886 20.1333 15.8373 19.3755 14.9032 19.3755C13.969 19.3755 13.2178 20.1268 13.2178 21.0609C13.2112 21.7991 13.3354 22.5308 13.5705 23.2232C13.76 23.772 14.0278 24.288 14.361 24.7584C14.6288 25.1307 14.9228 25.4835 15.2494 25.8101C15.7851 26.3523 16.3469 26.7965 16.8564 27.2015C17.2353 27.5086 17.5946 27.7895 17.8951 28.0638C18.1107 28.2533 18.3066 28.4558 18.4961 28.6714C18.6202 28.8151 18.7312 28.9588 18.8292 29.1156C18.9664 29.3377 19.0775 29.5729 19.1493 29.8276C19.2342 30.1216 19.2734 30.4352 19.2734 30.7422C19.28 31.1015 19.2212 31.4542 19.1101 31.7939C19.0187 32.0487 18.8946 32.2904 18.7378 32.506C18.581 32.7215 18.4111 32.9306 18.2217 33.1135C17.8624 33.4728 17.4117 33.8451 16.9021 34.2502C16.5232 34.5572 16.1117 34.8773 15.7132 35.2431C15.3931 35.5305 15.0861 35.8376 14.8052 36.1642C14.5765 36.432 14.3675 36.7129 14.1846 37.0069C13.8776 37.4903 13.6424 38.0129 13.4856 38.5616C13.3092 39.1692 13.2243 39.7963 13.2243 40.4234C13.2243 41.351 13.9756 42.1088 14.9097 42.1088C15.8439 42.1088 16.5951 41.3576 16.5951 40.4234Z" fill="white"/>
</svg>
