<svg width="17" height="17" viewBox="0 0 17 17" fill="none" xmlns="http://www.w3.org/2000/svg">
<path d="M16.5598 0.812385L15.2281 14.5352C15.2042 14.82 15.046 15.0766 14.8027 15.2264C14.5601 15.3762 14.2599 15.4015 13.9948 15.2953L9.59739 13.5944L7.13157 15.9056C6.96915 16.061 6.75328 16.1482 6.52828 16.1482C6.29063 16.151 6.0614 16.0582 5.89195 15.8909C5.72249 15.7235 5.62756 15.495 5.62828 15.2574V13.6226L11.5683 6.19977C11.6611 6.08446 11.6794 5.92556 11.6154 5.79196C11.5514 5.65837 11.4157 5.5733 11.268 5.5733C11.1766 5.574 11.0895 5.60845 11.0212 5.66892L4.17207 11.4935L0.562887 10.0964C0.242973 9.97339 0.0235887 9.67455 0.00179071 9.33214C-0.0200055 8.98972 0.158587 8.66558 0.460233 8.50174L15.4578 0.0959241C15.699 -0.0404817 15.9957 -0.0306394 16.227 0.120534C16.4584 0.272409 16.5856 0.540996 16.5561 0.815928L16.5598 0.812385Z" fill="#CED3E0"/>
</svg>
