<svg width="19" height="19" viewBox="0 0 19 19" fill="none" xmlns="http://www.w3.org/2000/svg">
<path fill-rule="evenodd" clip-rule="evenodd" d="M18.5196 12.9943C18.5196 14.5423 17.9811 15.8883 17.0389 16.8306C16.0966 17.7728 14.7505 18.244 13.2699 18.244H5.93377C4.45309 18.244 3.10701 17.7728 2.16476 16.8306C1.15521 15.8883 0.684082 14.5423 0.684082 12.9943V5.59087C0.684082 2.4949 2.7705 0.341187 5.93377 0.341187H13.3372C14.8852 0.341187 16.1639 0.879616 17.1062 1.82187C18.0484 2.76412 18.5196 4.04289 18.5196 5.59087V12.9943ZM14.346 5.52313C13.7403 5.52313 13.2691 5.052 13.2691 4.44627C13.2691 3.84054 13.7403 3.36941 14.346 3.36941C14.9517 3.36941 15.4229 3.84054 15.4229 4.44627C15.4229 5.052 14.9517 5.52313 14.346 5.52313ZM9.56771 13.8019C7.01017 13.8019 4.99106 11.7155 4.99106 9.22525C4.99106 6.66771 7.07747 4.6486 9.56771 4.6486C12.0579 4.6486 14.2117 6.66771 14.2117 9.22525C14.2117 11.7828 12.1252 13.8019 9.56771 13.8019ZM9.56695 12.1872C11.2025 12.1872 12.5283 10.8614 12.5283 9.22588C12.5283 7.59036 11.2025 6.26452 9.56695 6.26452C7.93143 6.26452 6.60559 7.59036 6.60559 9.22588C6.60559 10.8614 7.93143 12.1872 9.56695 12.1872Z" fill="white"/>
</svg>
