<svg width="29" height="54" viewBox="0 0 29 54" fill="none" xmlns="http://www.w3.org/2000/svg">
<path d="M4.25082 39.2341C4.24261 38.7828 4.31646 38.3397 4.45596 37.913C4.57084 37.593 4.72674 37.2894 4.92368 37.0186C5.12061 36.7478 5.33396 36.4853 5.57192 36.2555C6.02323 35.8042 6.58942 35.3365 7.22946 34.8277C7.70538 34.4503 8.21413 34.04 8.73108 33.5805C9.13316 33.2194 9.51882 32.8337 9.87167 32.4235C10.1589 32.087 10.4214 31.7342 10.6512 31.3649C11.0369 30.7577 11.3323 30.1013 11.5292 29.412C11.7508 28.6489 11.8574 27.8694 11.8492 27.0734C11.8574 26.1462 11.7015 25.2271 11.4061 24.3573C11.1682 23.6763 10.8317 23.028 10.4132 22.429C10.0768 21.9613 9.70755 21.5182 9.29727 21.1079C8.62441 20.4269 7.91873 19.8689 7.27869 19.3601C6.79456 18.9745 6.35145 18.6216 5.96579 18.277C5.695 18.039 5.44884 17.7846 5.21088 17.5139C5.05497 17.3333 4.91547 17.1528 4.79239 16.9559C4.62007 16.6769 4.48058 16.3815 4.39031 16.0615C4.28364 15.684 4.2344 15.2983 4.2344 14.9127C4.2344 13.7475 3.29076 12.7956 2.11736 12.7956C0.952159 12.7956 0.000308102 13.7393 0.000308102 14.9127C-0.00789752 15.8399 0.148006 16.7589 0.443408 17.6287C0.681371 18.318 1.0178 18.9663 1.43629 19.5571C1.77272 20.0248 2.14197 20.4679 2.55225 20.8782C3.22511 21.5592 3.93079 22.1172 4.57083 22.626C5.05496 23.0034 5.49807 23.3645 5.88373 23.7091C6.15452 23.9471 6.40069 24.2014 6.63865 24.4722C6.79456 24.6527 6.93406 24.8333 7.05714 25.0302C7.22946 25.3092 7.36895 25.6046 7.45921 25.9246C7.56588 26.3021 7.61512 26.6877 7.61512 27.0734C7.62333 27.5247 7.54948 27.9678 7.40998 28.3945C7.2951 28.7145 7.13919 29.0181 6.94226 29.2889C6.74532 29.5597 6.53198 29.8223 6.29401 30.052C5.8427 30.5033 5.27652 30.9711 4.63648 31.4798C4.16056 31.8655 3.6436 32.2676 3.14306 32.7271C2.74098 33.0881 2.35532 33.4738 2.00248 33.8841C1.71528 34.2205 1.4527 34.5733 1.22294 34.9426C0.837278 35.5498 0.541877 36.2063 0.336736 36.8955C0.115185 37.6586 0.00850971 38.4382 0.0167153 39.2341C0.0167153 40.3993 0.960365 41.3512 2.13377 41.3512C3.30717 41.3512 4.25082 40.3993 4.25082 39.2341Z" fill="white"/>
<path d="M20.8182 27.0652C20.81 26.6139 20.8838 26.1708 21.0233 25.7441C21.1382 25.4241 21.2941 25.1205 21.4911 24.8497C21.688 24.5789 21.9013 24.3163 22.1393 24.0866C22.5906 23.6353 23.1568 23.1675 23.7968 22.6588C24.2728 22.2813 24.7815 21.871 25.2985 21.4115C25.7005 21.0505 26.0862 20.6648 26.439 20.2545C26.7262 19.9181 26.9888 19.5653 27.2186 19.196C27.6042 18.5888 27.8996 17.9323 28.0966 17.2431C28.3181 16.48 28.4248 15.7004 28.4166 14.9045C28.4248 13.9772 28.2689 13.0582 27.9735 12.1884C27.7355 11.5073 27.3991 10.8591 26.9806 10.2601C26.6442 9.79237 26.2749 9.34927 25.8646 8.93899C25.1918 8.25793 24.4861 7.69994 23.8461 7.19119C23.3619 6.80553 22.9188 6.45269 22.5332 6.10805C22.2624 5.87009 22.0162 5.61571 21.7783 5.34493C21.6224 5.1644 21.4828 4.98389 21.3598 4.78695C21.1874 4.50796 21.048 4.21256 20.9577 3.89254C20.851 3.51508 20.8018 3.12942 20.8018 2.74375C20.8018 1.57855 19.8581 0.626698 18.6847 0.626698C17.5113 0.626698 16.5677 1.57035 16.5677 2.74375C16.5595 3.67099 16.7154 4.59001 17.0108 5.45981C17.2487 6.14908 17.5852 6.79732 18.0037 7.38813C18.3401 7.85585 18.7094 8.29895 19.1196 8.70923C19.7925 9.3903 20.4982 9.94828 21.1382 10.457C21.6141 10.8427 22.0655 11.1955 22.4429 11.5402C22.7137 11.7781 22.9599 12.0325 23.1978 12.3033C23.3537 12.4838 23.4932 12.6643 23.6163 12.8613C23.7886 13.1403 23.9281 13.4357 24.0184 13.7557C24.1251 14.1249 24.1743 14.5188 24.1743 14.9045C24.1825 15.3558 24.1086 15.7989 23.9692 16.2256C23.8543 16.5456 23.6984 16.8492 23.5014 17.12C23.3045 17.3908 23.0912 17.6534 22.8532 17.8831C22.4019 18.3344 21.8357 18.8021 21.1957 19.3109C20.7197 19.6966 20.2028 20.0986 19.7022 20.5581C19.3002 20.9192 18.9145 21.3049 18.5617 21.7151C18.2745 22.0516 18.0119 22.4044 17.7821 22.7737C17.3965 23.3809 17.1011 24.0373 16.9041 24.7266C16.6826 25.4897 16.5759 26.2775 16.5759 27.0652C16.5759 28.2304 17.5195 29.1822 18.6929 29.1822C19.8663 29.1822 20.8182 28.2304 20.8182 27.0652Z" fill="white"/>
<path d="M20.8183 51.4031C20.8101 50.9518 20.8839 50.5087 21.0234 50.082C21.1383 49.7619 21.2942 49.4583 21.4912 49.1875C21.6881 48.9168 21.9014 48.6542 22.1394 48.4244C22.5907 47.9731 23.1569 47.5054 23.7969 46.9966C24.2729 46.6192 24.7816 46.2089 25.2986 45.7494C25.7006 45.3883 26.0863 45.0027 26.4391 44.5924C26.7263 44.256 26.9889 43.9031 27.2187 43.5339C27.6043 42.9267 27.8997 42.2702 28.0967 41.5809C28.3182 40.8178 28.4249 40.0383 28.4167 39.2423C28.4249 38.3151 28.269 37.3961 27.9736 36.5263C27.7356 35.8452 27.3992 35.197 26.9807 34.598C26.6443 34.1302 26.275 33.6871 25.8647 33.2768C25.1919 32.5958 24.4862 32.0378 23.8462 31.529C23.3702 31.1434 22.9189 30.7905 22.5415 30.4459C22.2707 30.2079 22.0245 29.9536 21.7866 29.6828C21.6307 29.5023 21.4912 29.3217 21.3681 29.1248C21.1958 28.8458 21.0563 28.5504 20.966 28.2304C20.8593 27.8529 20.8101 27.4673 20.8101 27.0816C20.8101 25.9164 19.8664 24.9646 18.693 24.9646C17.5196 24.9646 16.576 25.9082 16.576 27.0816C16.5678 28.0088 16.7237 28.9279 17.0191 29.7977C17.2571 30.4869 17.5935 31.1352 18.012 31.726C18.3484 32.1937 18.7177 32.6368 19.1279 33.0471C19.8008 33.7282 20.5065 34.2861 21.1465 34.7949C21.6224 35.1806 22.0738 35.5334 22.4512 35.878C22.722 36.116 22.9682 36.3704 23.2061 36.6412C23.362 36.8217 23.5015 37.0022 23.6246 37.1991C23.7969 37.4781 23.9364 37.7735 24.0267 38.0935C24.1334 38.4628 24.1826 38.8567 24.1826 39.2423C24.1908 39.6936 24.117 40.1367 23.9775 40.5634C23.8626 40.8835 23.7067 41.1871 23.5097 41.4578C23.3128 41.7286 23.0995 41.9912 22.8615 42.221C22.4102 42.6723 21.844 43.14 21.204 43.6488C20.728 44.0344 20.2111 44.4365 19.7105 44.896C19.3085 45.257 18.9228 45.6427 18.57 46.053C18.2828 46.3894 18.0202 46.7423 17.7904 47.1115C17.4048 47.7187 17.1094 48.3752 16.9124 49.0645C16.6909 49.8276 16.5842 50.6153 16.5842 51.4031C16.5842 52.5683 17.5278 53.5201 18.7012 53.5201C19.8747 53.5201 20.8183 52.5765 20.8183 51.4031Z" fill="white"/>
</svg>
