<svg width="168" height="43" viewBox="0 0 168 43" fill="none" xmlns="http://www.w3.org/2000/svg">
<path d="M36.2759 12.4837H41.2471C47.0742 12.4837 50.1575 15.6128 50.1575 21.172C50.1575 26.5025 46.9827 29.6055 41.2276 29.6055H36.2824V12.4837H36.2759ZM40.9205 26.79C44.7029 26.79 47.0807 25.3202 47.0807 21.0479C47.0807 16.9846 45.4214 15.3123 41.2014 15.3123H39.3592V26.79H40.9205Z" fill="white"/>
<path d="M51.7188 23.6021C51.7188 20.4534 53.5609 17.2525 57.6568 17.2525C61.8965 17.2525 63.2683 20.6559 63.2683 23.3604C63.2683 23.8569 63.2226 24.3533 63.1572 24.5232H54.8413C55.0961 26.1106 55.9714 27.1754 57.8724 27.1754C58.9633 27.1754 59.9302 26.8357 60.7794 25.8885L62.8175 27.6719C61.498 29.1417 59.8844 29.8537 57.8463 29.8537C53.6785 29.8537 51.7188 26.8618 51.7188 23.6021ZM60.3613 22.387C60.3613 22.1192 60.3352 21.8644 60.2633 21.6227C59.9628 20.375 58.9176 19.7348 57.6307 19.7348C55.8865 19.7348 55.1222 20.8715 54.8413 22.387H60.3613V22.387Z" fill="white"/>
<path d="M64.3135 26.4568L66.6652 25.4116C66.9918 26.287 67.632 27.3975 69.2455 27.3975C70.6174 27.3975 71.2118 26.6005 71.2118 25.9538C71.2118 23.9157 65.13 25.2875 65.13 21.0087C65.13 18.4479 67.2858 17.2394 69.6244 17.2394C71.7083 17.2394 73.2957 18.2323 74.2168 19.872L71.9239 21.1197C71.5123 20.3685 70.833 19.578 69.5264 19.578C68.5596 19.578 67.9652 20.0484 67.9652 20.6232C67.9652 22.4524 74.1254 21.3614 74.1254 25.8101C74.1254 28.6125 71.6887 29.8472 69.3958 29.8472C66.8481 29.8537 64.9079 28.3251 64.3135 26.4568Z" fill="white"/>
<path d="M76.686 12.4837H79.789V15.2078H76.686V12.4837V12.4837ZM76.7579 17.5007H79.7171V29.612H76.7579V17.5007Z" fill="white"/>
<path d="M97.3618 17.5007H100.321V18.9052C101.288 17.7163 102.686 17.2459 103.875 17.2459C107.05 17.2459 108.297 19.8067 108.297 22.3348V29.6055H105.338V22.7071C105.338 21.1197 104.541 19.97 103.026 19.97C101.366 19.97 100.321 20.865 100.321 22.975V29.6055H97.3618V17.5007V17.5007Z" fill="white"/>
<path d="M108.238 12.4837H111.439L115.084 25.0915L118.88 13.4766H121.271L125.066 25.0915L128.711 12.4837H131.912L126.771 29.612H123.799L120.069 18.3369L116.345 29.612H113.373L108.238 12.4837Z" fill="white"/>
<path d="M150.014 29.2854L145.278 17.5007H148.525L151.582 25.9146L154.685 17.5007H157.931L151.013 34.8185H147.786L150.014 29.2854Z" fill="white"/>
<path d="M158.075 26.4568L160.427 25.4116C160.754 26.287 161.394 27.3975 163.007 27.3975C164.379 27.3975 164.974 26.6005 164.974 25.9538C164.974 23.9157 158.892 25.2875 158.892 21.0087C158.892 18.4479 161.047 17.2394 163.386 17.2394C165.47 17.2394 167.057 18.2323 167.979 19.872L165.686 21.1197C165.274 20.3685 164.595 19.578 163.288 19.578C162.321 19.578 161.727 20.0484 161.727 20.6232C161.727 22.4524 167.887 21.3614 167.887 25.8101C167.887 28.6125 165.45 29.8472 163.158 29.8472C160.61 29.8537 158.67 28.3251 158.075 26.4568Z" fill="white"/>
<path d="M132.644 28.0377C131.553 26.8618 131.011 25.3593 131.011 23.5302C131.011 21.7011 131.553 20.2052 132.637 19.0424C133.722 17.8796 135.094 17.2982 136.766 17.2982C138.438 17.2982 139.706 17.9841 140.587 19.3625V17.468H143.658V29.6251H140.587V27.5869C139.666 29.0633 138.386 29.8015 136.746 29.8015C135.094 29.808 133.735 29.2201 132.644 28.0377ZM139.614 26.1759C140.261 25.5423 140.581 24.6669 140.581 23.5498C140.581 22.4393 140.261 21.5639 139.614 20.9237C138.967 20.2901 138.216 19.97 137.354 19.97C136.492 19.97 135.74 20.2836 135.107 20.9107C134.473 21.5378 134.153 22.4132 134.153 23.5237C134.153 24.6342 134.473 25.5161 135.12 26.1563C135.766 26.803 136.511 27.1231 137.367 27.1231C138.223 27.1231 138.967 26.8096 139.614 26.1759Z" fill="white"/>
<path d="M83.826 27.9854C82.7351 26.8096 82.1929 25.3071 82.1929 23.478C82.1929 21.6489 82.7351 20.1529 83.8195 18.9901C84.9039 17.8273 86.2757 17.2459 87.9481 17.2459C89.6204 17.2459 90.8877 17.9318 91.7696 19.3102V17.4223H94.8399V29.6708C94.8399 31.415 94.3303 32.8326 93.3047 33.9431C92.2791 35.0471 90.842 35.6024 88.9933 35.6024C87.1445 35.6024 85.6682 35.217 84.5838 34.4526C83.4929 33.6818 82.8723 32.5909 82.7285 31.1733H85.7596C85.9491 31.7155 86.3149 32.1401 86.8571 32.4602C87.3993 32.7738 88.0787 32.9306 88.8953 32.9306C89.7118 32.9306 90.3977 32.6627 90.9465 32.1205C91.4952 31.5783 91.7696 30.7683 91.7696 29.6839V27.5543C90.8485 29.0306 89.5681 29.7688 87.9285 29.7688C86.2822 29.7492 84.9169 29.1613 83.826 27.9854ZM90.7962 26.1171C91.443 25.4835 91.7631 24.6081 91.7631 23.491C91.7631 22.3805 91.443 21.5051 90.7962 20.865C90.1495 20.2313 89.3983 19.9112 88.536 19.9112C87.6737 19.9112 86.9224 20.2248 86.2888 20.8519C85.6551 21.479 85.335 22.3544 85.335 23.4649C85.335 24.5754 85.6551 25.4573 86.3018 26.0975C86.9486 26.7442 87.6933 27.0643 88.549 27.0643C89.4048 27.0643 90.1495 26.7573 90.7962 26.1171Z" fill="white"/>
<path d="M3.3841 30.7356C3.37757 30.3763 3.43636 30.0236 3.54742 29.6839C3.63887 29.4291 3.76299 29.1874 3.91977 28.9718C4.07655 28.7563 4.2464 28.5472 4.43584 28.3643C4.79513 28.005 5.24588 27.6327 5.75542 27.2277C6.13431 26.9272 6.53932 26.6005 6.95087 26.2347C7.27097 25.9473 7.578 25.6402 7.8589 25.3136C8.08754 25.0458 8.29658 24.7649 8.47949 24.4709C8.78652 23.9875 9.02169 23.4649 9.17847 22.9162C9.35485 22.3087 9.43977 21.6881 9.43324 21.0544C9.43977 20.3162 9.31566 19.5846 9.08049 18.8921C8.89104 18.3499 8.6232 17.8339 8.29004 17.357C8.02221 16.9846 7.72825 16.6319 7.40162 16.3052C6.86595 15.763 6.30415 15.3188 5.79461 14.9138C5.40919 14.6068 5.05643 14.3259 4.7494 14.0515C4.53383 13.8621 4.33786 13.6596 4.14841 13.444C4.02429 13.3003 3.91324 13.1566 3.81525 12.9998C3.67807 12.7777 3.56702 12.5425 3.49516 12.2877C3.41023 11.9872 3.37104 11.6802 3.37104 11.3732C3.37104 10.4455 2.6198 9.68777 1.68564 9.68777C0.75802 9.68777 0.000245282 10.439 0.000245282 11.3732C-0.00628726 12.1113 0.117829 12.843 0.353 13.5354C0.542444 14.0842 0.810281 14.6002 1.14344 15.0706C1.41128 15.4429 1.70524 15.7957 2.03187 16.1223C2.56753 16.6645 3.12933 17.1087 3.63887 17.5138C4.02429 17.8143 4.37705 18.1017 4.68408 18.3761C4.89965 18.5655 5.09563 18.768 5.28507 18.9836C5.40919 19.1273 5.52025 19.271 5.61824 19.4278C5.75542 19.6499 5.86647 19.8851 5.93833 20.1398C6.02325 20.4403 6.06245 20.7474 6.06245 21.0544C6.06898 21.4137 6.01019 21.7664 5.89913 22.1061C5.80768 22.3609 5.68356 22.6026 5.52678 22.8182C5.37 23.0338 5.20015 23.2428 5.01071 23.4257C4.65142 23.785 4.20067 24.1574 3.69113 24.5624C3.31225 24.8694 2.9007 25.1895 2.50221 25.5553C2.18212 25.8428 1.87508 26.1498 1.59418 26.4764C1.36555 26.7443 1.1565 27.0252 0.973592 27.3191C0.666563 27.8025 0.431392 28.3251 0.268078 28.8739C0.0916993 29.4814 0.00677464 30.102 0.0133072 30.7356C0.0133072 31.6633 0.764553 32.421 1.69871 32.421C2.63286 32.421 3.3841 31.6633 3.3841 30.7356Z" fill="white"/>
<path d="M16.5731 21.0479C16.5665 20.6886 16.6253 20.3358 16.7364 19.9961C16.8278 19.7414 16.952 19.4997 17.1087 19.2841C17.2655 19.0685 17.4354 18.8595 17.6248 18.6766C17.9841 18.3173 18.4348 17.9449 18.9444 17.5399C19.3233 17.2394 19.7283 16.9128 20.1398 16.5469C20.4599 16.2595 20.767 15.9525 21.0479 15.6259C21.2765 15.358 21.4855 15.0771 21.6685 14.7832C21.9755 14.2997 22.2107 13.7771 22.3674 13.2284C22.5438 12.6209 22.6287 12.0003 22.6222 11.3666C22.6287 10.6285 22.5046 9.89681 22.2695 9.20436C22.08 8.66216 21.8122 8.14609 21.479 7.66921C21.2112 7.29686 20.9172 6.9441 20.5906 6.61747C20.0549 6.07527 19.4931 5.63106 18.9836 5.22604C18.5982 4.91901 18.2454 4.63811 17.9384 4.36374C17.7228 4.1743 17.5268 3.97179 17.3374 3.75621C17.2133 3.6125 17.1022 3.46879 17.0042 3.31201C16.867 3.0899 16.756 2.85473 16.6841 2.59996C16.5992 2.29946 16.56 1.99243 16.56 1.6854C16.56 0.757779 15.8088 0 14.8746 0C13.9404 0 13.1892 0.751246 13.1892 1.6854C13.1827 2.42358 13.3068 3.15522 13.542 3.84767C13.7314 4.39641 13.9992 4.91248 14.3324 5.38282C14.6002 5.75518 14.8942 6.10793 15.2208 6.43456C15.7565 6.97676 16.3183 7.42098 16.8278 7.82599C17.2067 8.13302 17.566 8.41392 17.8665 8.68829C18.0821 8.87773 18.2781 9.08024 18.4675 9.29582C18.5916 9.43953 18.7027 9.58324 18.8007 9.74003C18.9378 9.96213 19.0489 10.1973 19.1208 10.4521C19.2057 10.746 19.2449 11.0596 19.2449 11.3666C19.2514 11.7259 19.1926 12.0787 19.0816 12.4184C18.9901 12.6731 18.866 12.9148 18.7092 13.1304C18.5524 13.346 18.3826 13.555 18.1931 13.7379C17.8338 14.0972 17.3831 14.4696 16.8736 14.8746C16.4947 15.1816 16.0831 15.5017 15.6846 15.8676C15.3645 16.155 15.0575 16.462 14.7766 16.7886C14.548 17.0565 14.3389 17.3374 14.156 17.6313C13.849 18.1148 13.6138 18.6374 13.457 19.1861C13.2807 19.7936 13.1957 20.4207 13.1957 21.0479C13.1957 21.9755 13.947 22.7333 14.8811 22.7333C15.8153 22.7333 16.5731 21.9755 16.5731 21.0479Z" fill="white"/>
<path d="M16.5734 40.4234C16.5668 40.0641 16.6256 39.7114 16.7367 39.3717C16.8281 39.1169 16.9523 38.8752 17.109 38.6596C17.2658 38.444 17.4357 38.235 17.6251 38.0521C17.9844 37.6928 18.4351 37.3204 18.9447 36.9154C19.3236 36.6149 19.7286 36.2883 20.1401 35.9225C20.4602 35.635 20.7673 35.328 21.0482 35.0014C21.2768 34.7336 21.4858 34.4527 21.6688 34.1587C21.9758 33.6753 22.211 33.1527 22.3677 32.6039C22.5441 31.9964 22.629 31.3758 22.6225 30.7422C22.629 30.004 22.5049 29.2723 22.2698 28.5799C22.0803 28.0377 21.8125 27.5216 21.4793 27.0447C21.2115 26.6724 20.9175 26.3196 20.5909 25.993C20.0552 25.4508 19.4934 25.0066 18.9839 24.6016C18.605 24.2945 18.2457 24.0136 17.9452 23.7393C17.7296 23.5498 17.5337 23.3473 17.3442 23.1317C17.2201 22.988 17.109 22.8443 17.0111 22.6875C16.8739 22.4654 16.7628 22.2303 16.691 21.9755C16.606 21.675 16.5668 21.368 16.5668 21.0609C16.5668 20.1333 15.8156 19.3755 14.8814 19.3755C13.9473 19.3755 13.196 20.1268 13.196 21.0609C13.1895 21.7991 13.3136 22.5308 13.5488 23.2232C13.7382 23.7719 14.0061 24.288 14.3392 24.7584C14.6071 25.1307 14.901 25.4835 15.2277 25.8101C15.7633 26.3523 16.3251 26.7965 16.8347 27.2015C17.2136 27.5086 17.5729 27.7895 17.8733 28.0638C18.0889 28.2533 18.2849 28.4558 18.4743 28.6713C18.5985 28.8151 18.7095 28.9588 18.8075 29.1156C18.9447 29.3377 19.0557 29.5728 19.1276 29.8276C19.2125 30.1216 19.2517 30.4351 19.2517 30.7422C19.2582 31.1015 19.1995 31.4542 19.0884 31.7939C18.9969 32.0487 18.8728 32.2904 18.716 32.506C18.5593 32.7215 18.3894 32.9306 18.2 33.1135C17.8407 33.4728 17.3899 33.8451 16.8804 34.2501C16.5015 34.5572 16.09 34.8773 15.6915 35.2431C15.3714 35.5305 15.0643 35.8376 14.7835 36.1642C14.5548 36.432 14.3458 36.7129 14.1629 37.0069C13.8558 37.4903 13.6207 38.0129 13.4639 38.5616C13.2875 39.1692 13.2026 39.7963 13.2026 40.4234C13.2026 41.351 13.9538 42.1088 14.888 42.1088C15.8221 42.1088 16.5734 41.3576 16.5734 40.4234Z" fill="white"/>
</svg>
